# xmcd
# 
# Track frame offsets:
#     150
#     10407
#     21722
#     33242
#     46730
#     58137
#     69090
#     79340
#     89920
#     100815
#     109977
#     121000
#     129732
#     139722
#     151425
#     161175
#     171912
#     188837
#     198725
#     210867
#     225662
#     239682
#     254677
#     268677
#     279212
#     293245
#     304970
# 
# Disc length: 4203
# 
# Revision: 5
# Processed by: cddbd v1.5.2PL0 Copyright (c) Steve Scherf et al.
# Submitted via: fre:ac v1.1beta1pre5
# 
DISCID=9410691b
DTITLE=Bill Monroe - The Music Of Bill Monroe From 1936 To 1994 [CD3]
DYEAR=1994
DGENRE=Bluegrass
TTITLE0=Big Mon
TTITLE1=Dark As The Night, Blue As The Day
TTITLE2=Sold Down The River
TTITLE3=Little Joe
TTITLE4=Lonesome Road Blues
TTITLE5=I'm Going Back To Old Kentucky
TTITLE6=Toy Heart
TTITLE7=Nine Pound Hammer
TTITLE8=Big Sandy River
TTITLE9=Darling Corey
TTITLE10=Salt Creek
TTITLE11=Sailor's Hornpipe
TTITLE12=Roll On Buddy, Roll On
TTITLE13=Bill's Dream
TTITLE14=Never Again
TTITLE15=Dusty Miller
TTITLE16=Midnight On The Stormy Deep
TTITLE17=Soldier's Joy
TTITLE18=Blue Night
TTITLE19=Sally Goodin
TTITLE20=Kentucky Mandolin
TTITLE21=Walls Of Time
TTITLE22=I Haven't Seen Mary In Years
TTITLE23=The Dead March
TTITLE24=With Body And Soul
TTITLE25=Walk Softly On My Heart
TTITLE26=Goin' Up Caney
EXTD=
EXTT0=
EXTT1=
EXTT2=
EXTT3=
EXTT4=
EXTT5=
EXTT6=
EXTT7=
EXTT8=
EXTT9=
EXTT10=
EXTT11=
EXTT12=
EXTT13=
EXTT14=
EXTT15=
EXTT16=
EXTT17=
EXTT18=
EXTT19=
EXTT20=
EXTT21=
EXTT22=
EXTT23=
EXTT24=
EXTT25=
EXTT26=
PLAYORDER=
